<svg width="54" height="54" viewBox="0 0 54 54" fill="none" xmlns="http://www.w3.org/2000/svg">
<path opacity="0.2" fill-rule="evenodd" clip-rule="evenodd" d="M35.6306 29.6999H54C52.6387 43.3439 41.0699 54 27 54C12.9301 54 1.36134 43.3439 0 29.6999H18.3694C19.5219 33.3514 22.9501 36 27 36C31.0499 36 34.4781 33.3514 35.6306 29.6999ZM35.6306 24.2999H54C52.6386 10.656 41.0699 0 27 0C12.9301 0 1.36143 10.656 1.46848e-05 24.2999H18.3694C19.522 20.6486 22.9502 18 27 18C31.0499 18 34.478 20.6486 35.6306 24.2999ZM27.0001 32.4C29.9972 32.4 32.4269 29.9823 32.4269 27C32.4269 24.0176 29.9972 21.6 27.0001 21.6C24.0029 21.6 21.5733 24.0176 21.5733 27C21.5733 29.9823 24.0029 32.4 27.0001 32.4Z" fill="#A1ADC6"/>
</svg>
